# xmcd
#
# Track frame offsets: 
#        150
#        13221
#        27522
#        39225
#        54446
#        82345
#        96813
#        111003
#        129198
#        143436
#        157535
#        185037
#        199770
#        214190
#        228721
#        240473
#        269013
#        283621
#        297546
#        308949
#
# Disc length: 4317 seconds
#
# Revision: 4
# Processed by: cddbd v1.5.2PL0 Copyright (c) Steve Scherf et al.
# Submitted via: ExactAudioCopy v1.0b3
#
DISCID=2210db14
DTITLE=Эдди Рознер - Мандолина, гитара и бас  
DYEAR=2001
DGENRE=Jazz
TTITLE0=Сент-Луис Блюз
TTITLE1=Зачем
TTITLE2=Ковбойская песня
TTITLE3=Встреча
TTITLE4=От двух до пяти
TTITLE5=На полянке
TTITLE6=Тирольская песня
TTITLE7=Сказки Венского Леса
TTITLE8=Мандолина, гитара и бас
TTITLE9=Караван
TTITLE10=Большой Вальс
TTITLE11=Жду
TTITLE12=Мери Лу
TTITLE13=1001 такт в ритме джаза
TTITLE14=Это не сон
TTITLE15=Очи черные
TTITLE16=Серенада на осле
TTITLE17=Прощай, Любовь
TTITLE18=Парень-паренек
TTITLE19=В лодке
EXTD=YEAR: 2001
EXTT0=
EXTT1=
EXTT2=
EXTT3=
EXTT4=
EXTT5=
EXTT6=
EXTT7=
EXTT8=
EXTT9=
EXTT10=
EXTT11=
EXTT12=
EXTT13=
EXTT14=
EXTT15=
EXTT16=
EXTT17=
EXTT18=
EXTT19=
PLAYORDER=
